<svg xmlns="http://www.w3.org/2000/svg" version="1.0" width="518.000000pt" height="428.000000pt" viewBox="0 0 518.000000 428.000000" preserveAspectRatio="xMidYMid meet">

<g transform="translate(0.000000,428.000000) scale(0.100000,-0.100000)" fill="#c11a0a" stroke="none">
<path d="M2390 4269 c-197 -22 -386 -73 -543 -147 l-98 -46 3 -475 4 -476 26 -85 c37 -119 71 -191 135 -290 93 -143 247 -287 393 -368 67 -38 194 -88 243 -97 l37 -7 0 1001 0 1001 -62 -1 c-35 -1 -97 -5 -138 -10z m-174 -731 l20 -63 71 -5 72 -5 -55 -39 c-30 -22 -54 -43 -54 -47 0 -4 9 -35 19 -68 10 -34 16 -61 13 -61 -3 0 -29 18 -58 40 l-52 39 -55 -39 c-31 -22 -58 -40 -61 -40 -3 0 4 25 15 57 10 31 19 62 19 69 0 7 -26 31 -57 53 l-58 41 76 0 77 0 17 65 c10 36 21 65 25 65 3 0 15 -28 26 -62z" fill="#c11a0a"/>
<path d="M2653 4223 c4 -32 32 -467 63 -968 31 -500 58 -912 60 -914 6 -7 116 53 121 65 4 10 -172 1678 -193 1832 -6 37 -9 42 -31 42 -25 0 -25 -1 -20 -57z" fill="#c11a0a"/>
<path d="M2763 4248 c3 -13 69 -401 147 -863 78 -462 144 -847 146 -854 3 -11 20 0 55 35 l50 50 -178 827 c-175 812 -178 827 -202 827 -19 0 -22 -4 -18 -22z" fill="#c11a0a"/>
<path d="M2870 4251 c0 -6 386 -1419 403 -1475 2 -5 18 20 37 56 l34 66 -163 514 c-286 896 -269 848 -291 848 -11 0 -20 -4 -20 -9z" fill="#c11a0a"/>
<path d="M2980 4233 c0 -4 95 -261 212 -571 134 -356 215 -557 220 -548 4 7 10 44 13 82 l6 69 -205 485 c-170 404 -208 486 -225 488 -12 2 -21 0 -21 -5z" fill="#c11a0a"/>
<path d="M3124 4138 c57 -124 296 -622 301 -627 3 -2 5 124 5 280 l0 284 -57 32 c-62 33 -242 103 -267 103 -11 0 -7 -17 18 -72z" fill="#c11a0a"/>
<path d="M154 1939 c-106 -25 -168 -136 -142 -254 18 -81 81 -121 268 -171 130 -35 161 -58 167 -130 8 -93 -51 -146 -162 -146 -119 -1 -196 69 -234 207 -8 30 -16 41 -31 42 -19 2 -20 -4 -20 -148 0 -143 1 -149 20 -149 13 0 29 13 42 35 19 33 22 34 37 21 93 -84 323 -72 388 20 76 108 46 272 -59 326 -20 11 -88 33 -150 50 -141 38 -166 51 -184 94 -17 41 -6 100 25 128 52 47 175 38 238 -17 34 -30 93 -135 93 -165 0 -8 9 -12 23 -10 13 2 22 10 21 21 0 9 -1 67 -2 127 -2 93 -5 112 -19 117 -11 5 -24 -3 -40 -24 l-24 -31 -57 29 c-64 32 -137 43 -198 28z" fill="#c11a0a"/>
<path d="M4693 1943 c-68 -4 -73 -5 -73 -27 0 -19 6 -23 31 -24 18 0 36 -5 41 -10 4 -4 7 -148 6 -318 l-3 -309 -38 -3 c-33 -3 -38 -6 -35 -25 3 -21 7 -22 128 -22 118 0 125 1 125 20 0 15 -8 21 -30 23 -16 2 -34 7 -38 12 -14 13 -11 128 3 145 35 43 45 38 109 -47 34 -45 61 -88 61 -95 0 -8 -12 -13 -30 -13 -25 0 -30 -4 -30 -25 l0 -25 130 0 130 0 0 25 c0 16 -6 25 -15 25 -38 0 -78 36 -155 140 l-83 111 44 45 c46 47 111 84 147 84 15 0 22 6 22 20 0 19 -7 20 -130 20 -122 0 -130 -1 -130 -19 0 -16 8 -20 37 -23 20 -2 38 -8 40 -14 2 -6 -33 -43 -77 -83 l-80 -73 -1 219 c-2 277 -1 268 -19 268 -8 1 -48 0 -87 -2z" fill="#c11a0a"/>
<path d="M2607 1924 c-4 -4 -7 -16 -7 -26 0 -15 8 -18 43 -18 24 0 48 -5 55 -12 9 -9 12 -90 12 -305 l0 -293 -26 -10 c-14 -6 -39 -10 -55 -10 -29 0 -36 -13 -20 -38 12 -19 439 -12 491 8 116 43 168 152 121 256 -22 48 -61 79 -123 95 l-45 12 51 26 c66 34 96 78 96 143 0 67 -28 117 -81 148 -43 24 -50 25 -274 28 -127 2 -234 0 -238 -4z m413 -62 c45 -22 60 -53 60 -124 0 -49 -4 -62 -27 -88 -30 -33 -94 -50 -184 -50 l-49 0 0 133 c0 74 3 137 7 140 14 15 158 7 193 -11z m13 -326 c53 -22 71 -50 75 -120 5 -74 -13 -118 -57 -140 -38 -20 -168 -31 -203 -17 l-28 11 0 140 0 140 90 0 c54 0 104 -6 123 -14z" fill="#c11a0a"/>
<path d="M663 1809 c-14 -72 -52 -127 -94 -136 -22 -4 -29 -11 -29 -29 0 -21 5 -24 40 -24 l40 0 0 -186 0 -186 30 -30 c29 -29 34 -30 95 -26 54 3 70 9 93 31 31 30 52 85 52 136 0 24 -4 31 -20 31 -15 0 -20 -7 -20 -25 0 -38 -26 -92 -50 -105 -31 -16 -69 -4 -80 26 -6 14 -10 95 -10 180 l0 154 75 0 c73 0 75 1 75 25 0 24 -2 25 -70 25 l-70 0 0 100 c0 97 -1 100 -23 100 -20 0 -24 -8 -34 -61z" fill="#c11a0a"/>
<path d="M1071 1675 c-56 -18 -116 -76 -138 -134 -20 -52 -22 -150 -3 -205 61 -185 338 -196 414 -16 37 91 29 190 -24 273 -48 75 -158 112 -249 82z m122 -46 c42 -19 60 -64 65 -163 7 -143 -24 -219 -95 -232 -47 -9 -97 15 -120 58 -25 47 -25 239 -1 285 32 59 92 79 151 52z" fill="#c11a0a"/>
<path d="M3552 1679 c-39 -8 -77 -41 -103 -89 l-18 -35 -1 63 0 62 -37 0 c-21 0 -61 -3 -90 -6 -42 -5 -51 -10 -50 -25 1 -14 9 -19 33 -19 57 0 60 -8 54 -201 l-5 -174 -35 -5 c-27 -4 -35 -10 -35 -25 0 -19 8 -20 133 -23 l132 -3 0 25 c0 22 -5 25 -42 28 l-43 3 0 125 c1 134 15 181 67 230 26 24 50 27 42 5 -19 -48 34 -97 79 -74 29 15 37 28 37 59 0 56 -55 93 -118 79z" fill="#c11a0a"/>
<path d="M3855 1681 c-70 -18 -116 -55 -151 -121 -14 -27 -19 -56 -19 -125 0 -81 3 -95 28 -138 41 -69 94 -101 177 -105 114 -7 195 50 230 162 27 84 -4 220 -62 272 -51 47 -140 71 -203 55z m125 -71 c33 -36 40 -66 40 -181 0 -112 -19 -165 -66 -185 -43 -18 -68 -18 -103 1 -43 22 -61 78 -62 194 -1 148 30 201 119 201 36 0 49 -6 72 -30z" fill="#c11a0a"/>
<path d="M4332 1675 c-60 -18 -106 -57 -131 -109 -64 -137 -15 -303 104 -357 52 -24 138 -24 191 0 49 23 97 78 113 133 17 56 15 159 -4 205 -44 106 -163 162 -273 128z m126 -51 c45 -31 57 -71 57 -189 -1 -85 -5 -117 -18 -142 -23 -43 -70 -67 -115 -59 -78 12 -108 81 -100 230 7 132 35 174 118 175 20 1 46 -6 58 -15z" fill="#c11a0a"/>
<path d="M1413 1673 c-25 -3 -33 -9 -33 -24 0 -14 7 -19 28 -19 52 0 53 -2 50 -196 l-3 -179 -32 -3 c-28 -3 -33 -7 -33 -28 l0 -25 118 3 c112 3 117 4 120 25 3 18 -2 22 -30 25 l-33 3 0 142 c0 128 2 144 21 170 30 40 92 60 133 43 18 -7 37 -22 43 -33 11 -21 13 -301 2 -319 -3 -4 -19 -8 -35 -8 -26 0 -30 -3 -27 -22 3 -22 7 -23 121 -26 l117 -3 0 25 c0 21 -5 25 -32 28 l-33 3 -5 165 c-4 137 -8 171 -23 193 -56 86 -183 90 -269 9 l-28 -26 0 42 0 42 -52 -2 c-29 0 -68 -3 -85 -5z" fill="#c11a0a"/>
<path d="M1912 1648 c2 -16 12 -24 33 -28 28 -5 35 -16 117 -204 l86 -200 -28 -55 c-52 -104 -115 -147 -115 -79 0 59 -73 71 -104 16 -12 -21 -12 -28 0 -54 30 -61 134 -62 197 -1 41 39 59 73 157 302 112 262 112 262 146 274 19 7 29 17 29 30 0 20 -6 21 -100 21 -93 0 -100 -1 -100 -20 0 -14 10 -22 32 -28 18 -4 34 -15 36 -24 3 -14 -82 -233 -97 -250 -3 -4 -32 52 -63 125 -41 95 -54 135 -46 144 6 7 14 11 18 8 15 -9 40 7 40 26 0 18 -9 19 -121 19 -119 0 -120 0 -117 -22z" fill="#c11a0a"/>
<path d="M370 905 c0 -23 4 -25 44 -25 24 0 48 -6 54 -13 6 -7 12 -110 14 -267 3 -241 4 -257 25 -297 42 -77 122 -113 252 -113 129 0 197 31 241 110 24 44 25 51 30 298 5 236 6 255 24 268 11 8 35 14 53 14 29 0 33 3 33 25 l0 25 -135 0 -135 0 0 -25 c0 -22 4 -25 35 -25 22 0 43 -8 55 -20 20 -20 21 -30 18 -268 -3 -237 -4 -248 -25 -278 -34 -47 -86 -68 -168 -68 -93 0 -149 28 -176 87 -17 38 -19 68 -19 283 0 173 3 243 12 252 7 7 29 12 50 12 34 0 38 3 38 25 l0 25 -160 0 -160 0 0 -25z" fill="#c11a0a"/>
<path d="M1750 910 c-25 -25 -26 -62 -2 -83 39 -35 102 -9 102 41 0 28 -34 62 -60 62 -11 0 -29 -9 -40 -20z" fill="#c11a0a"/>
<path d="M3760 910 c-11 -11 -20 -29 -20 -40 0 -27 35 -60 63 -60 53 0 77 75 35 104 -30 21 -54 20 -78 -4z" fill="#c11a0a"/>
<path d="M4045 823 c-12 -85 -61 -153 -107 -153 -13 0 -18 -8 -18 -25 0 -22 4 -25 40 -25 l40 0 0 -180 c0 -110 4 -188 11 -203 34 -74 189 -59 230 23 25 49 29 123 8 128 -13 2 -18 -8 -24 -44 -11 -79 -78 -121 -118 -76 -14 16 -17 44 -17 185 l0 166 73 3 c66 3 72 5 75 26 3 21 0 22 -72 22 l-76 0 0 100 c0 91 -2 100 -19 100 -15 0 -20 -10 -26 -47z" fill="#c11a0a"/>
<path d="M1133 673 c-45 -3 -53 -7 -53 -24 0 -15 7 -19 34 -19 18 0 39 -6 45 -14 8 -9 11 -68 9 -187 l-3 -174 -37 -3 c-30 -3 -38 -7 -38 -23 0 -18 8 -19 125 -19 117 0 125 1 125 19 0 16 -8 20 -37 23 l-38 3 0 135 c0 155 12 191 70 216 52 22 83 17 116 -15 l30 -30 -3 -153 -3 -153 -37 -3 c-30 -3 -38 -7 -38 -23 0 -18 8 -19 125 -19 117 0 125 1 125 19 0 16 -8 20 -37 23 l-38 3 -5 165 c-6 186 -15 216 -74 244 -68 32 -147 18 -203 -37 l-33 -31 0 42 0 42 -37 -2 c-21 -1 -62 -3 -90 -5z" fill="#c11a0a"/>
<path d="M1713 673 c-45 -3 -53 -7 -53 -24 0 -15 7 -19 35 -19 24 0 37 -6 45 -19 15 -29 13 -334 -2 -349 -7 -7 -27 -12 -45 -12 -26 0 -33 -4 -33 -20 0 -19 7 -20 130 -20 122 0 130 1 130 19 0 16 -8 20 -37 23 l-38 3 -3 213 -2 212 -38 -2 c-20 -1 -61 -3 -89 -5z" fill="#c11a0a"/>
<path d="M2525 666 c-77 -34 -125 -122 -125 -229 0 -77 15 -127 53 -173 92 -110 285 -94 352 30 17 32 18 38 5 46 -11 7 -24 -1 -50 -30 -42 -48 -100 -74 -146 -66 -66 13 -114 76 -114 151 l0 35 166 0 166 0 -7 43 c-16 107 -44 155 -108 186 -50 24 -145 28 -192 7z m160 -50 c25 -25 39 -76 33 -117 -3 -23 -6 -24 -110 -27 -107 -3 -108 -2 -108 20 0 42 21 100 45 124 34 34 106 34 140 0z" fill="#c11a0a"/>
<path d="M2888 673 c-40 -3 -48 -8 -48 -24 0 -15 7 -19 34 -19 18 0 39 -6 45 -14 8 -9 11 -68 9 -187 l-3 -174 -37 -3 c-30 -3 -38 -7 -38 -23 0 -18 8 -19 130 -19 122 0 130 1 130 19 0 16 -8 20 -42 23 l-43 3 -3 99 c-2 67 2 115 13 152 25 85 114 171 99 96 -7 -36 16 -62 56 -62 60 0 81 69 35 115 -18 19 -35 25 -67 25 -53 0 -81 -19 -119 -78 l-29 -46 0 62 0 62 -37 -2 c-21 -1 -59 -3 -85 -5z" fill="#c11a0a"/>
<path d="M3343 660 c-41 -25 -55 -52 -56 -111 -1 -90 35 -122 173 -153 41 -10 85 -24 98 -32 31 -20 30 -73 -2 -103 -72 -67 -203 -10 -231 102 -5 17 -14 27 -26 27 -17 0 -19 -9 -19 -100 0 -85 2 -100 16 -100 9 0 23 9 32 20 l17 21 40 -21 c51 -26 133 -27 184 0 47 24 71 70 71 140 0 45 -4 56 -33 85 -27 27 -49 36 -131 55 -57 14 -107 31 -118 42 -45 45 -3 108 75 108 38 0 53 -6 83 -32 20 -18 43 -47 51 -65 7 -18 20 -33 28 -33 12 0 15 16 15 85 0 78 -2 85 -20 85 -10 0 -23 -7 -28 -15 -7 -14 -12 -14 -45 0 -52 21 -135 19 -174 -5z" fill="#c11a0a"/>
<path d="M3723 673 c-45 -3 -53 -7 -53 -24 0 -15 7 -19 33 -19 18 0 38 -5 45 -12 13 -13 18 -321 6 -352 -4 -10 -18 -16 -40 -16 -27 0 -34 -4 -34 -20 0 -19 7 -20 125 -20 117 0 125 1 125 19 0 16 -8 20 -37 23 l-38 3 -3 213 -2 212 -38 -2 c-20 -1 -61 -3 -89 -5z" fill="#c11a0a"/>
<path d="M1900 651 c0 -12 11 -23 28 -29 30 -10 24 3 161 -312 34 -80 55 -116 68 -118 15 -2 31 29 87 170 91 227 99 243 135 258 19 8 31 20 31 31 0 17 -9 19 -100 19 -92 0 -100 -2 -100 -19 0 -14 9 -21 31 -26 17 -4 33 -13 36 -21 6 -15 -85 -264 -97 -264 -5 0 -89 184 -117 258 -3 7 8 17 26 23 20 7 31 18 31 30 0 18 -9 19 -110 19 -101 0 -110 -1 -110 -19z" fill="#c11a0a"/>
<path d="M4270 652 c0 -11 13 -24 32 -33 30 -13 41 -32 117 -207 l84 -193 -29 -61 c-29 -60 -87 -123 -105 -113 -5 4 -9 19 -9 34 0 34 -17 51 -51 51 -58 0 -80 -67 -36 -108 29 -27 93 -29 144 -5 52 24 91 92 198 343 53 123 101 231 108 238 6 8 21 18 34 23 14 5 23 17 23 29 0 19 -6 20 -95 20 -89 0 -95 -1 -95 -20 0 -15 8 -22 29 -26 17 -4 32 -13 35 -20 7 -18 -95 -267 -105 -257 -12 14 -109 244 -109 259 0 8 13 17 30 21 21 4 30 11 30 24 0 17 -9 19 -115 19 -105 0 -115 -2 -115 -18z" fill="#c11a0a"/>
</g>
</svg>